<svg xmlns="http://www.w3.org/2000/svg" viewBox="0 0 24 24" fill="#333"><path d="M19.1 13.75a4.44 4.44 0 01-1.38 3.32 4.3 4.3 0 01-3.32 1.43 2.74 2.74 0 01-1.35-.35A10.15 10.15 0 0112 15.6a9.49 9.49 0 01-1.05 2.55 2.58 2.58 0 01-1.35.35 4.3 4.3 0 01-3.32-1.43 4.44 4.44 0 01-1.38-3.32 5.09 5.09 0 012.83-4.59 4.39 4.39 0 013.84 1.25A9.67 9.67 0 0112 12.3a9.92 9.92 0 011.08-1.89 4.39 4.39 0 013.84-1.25 5.09 5.09 0 012.83 4.59zM15.2 3a4.17 4.17 0 013.25 1.27 4.41 4.41 0 00-2.88 2.63 4.88 4.88 0 00-2.85-2.28A3.73 3.73 0 0115.2 3z"/></svg>