<?xml version="1.0" encoding="UTF-8" standalone="no"?>
<!-- Generator: Adobe Illustrator 16.0.3, SVG Export Plug-In . SVG Version: 6.00 Build 0)  -->

<svg
   version="1.1"
   id="Capa_1"
   x="0px"
   y="0px"
   width="135px"
   height="115px"
   viewBox="0 0 135 115"
   enable-background="new 0 0 135 115"
   xml:space="preserve"
   sodipodi:docname="Aquarius.svg"
   inkscape:version="1.3.2 (091e20e, 2023-11-25, custom)"
   xmlns:inkscape="http://www.inkscape.org/namespaces/inkscape"
   xmlns:sodipodi="http://sodipodi.sourceforge.net/DTD/sodipodi-0.dtd"
   xmlns="http://www.w3.org/2000/svg"
   xmlns:svg="http://www.w3.org/2000/svg"><defs
   id="defs13" /><sodipodi:namedview
   id="namedview13"
   pagecolor="#ffffff"
   bordercolor="#cccccc"
   borderopacity="1"
   inkscape:showpageshadow="0"
   inkscape:pageopacity="1"
   inkscape:pagecheckerboard="0"
   inkscape:deskcolor="#d1d1d1"
   inkscape:zoom="5"
   inkscape:cx="15.9"
   inkscape:cy="32.4"
   inkscape:window-width="1920"
   inkscape:window-height="996"
   inkscape:window-x="1911"
   inkscape:window-y="-9"
   inkscape:window-maximized="1"
   inkscape:current-layer="Capa_1" />
<g
   id="acuario_1_"
   style="stroke:#04c4d0;stroke-opacity:1;stroke-width:2;stroke-dasharray:none">
	<g
   id="g7"
   style="stroke:#04c4d0;stroke-opacity:1;stroke-width:2;stroke-dasharray:none">
		<g
   id="g2"
   style="stroke:#04c4d0;stroke-opacity:1;stroke-width:2;stroke-dasharray:none">
			<path
   fill="none"
   stroke="#BE0411"
   stroke-miterlimit="10"
   d="M-33.187-1.824c0,0,2.877-0.25,4.97-2.208     c2.092-1.958,3.881-3.375,6.104-3.125"
   id="path1"
   style="stroke:#04c4d0;stroke-opacity:1;stroke-width:2;stroke-dasharray:none" />
			<path
   fill="none"
   stroke="#BE0411"
   stroke-miterlimit="10"
   d="M-23.114-7.157c2.224-0.25,4.012,1.167,6.104,3.125     c2.092,1.958,4.969,2.208,4.969,2.208s0.796,0.047,1.353,0"
   id="path2"
   style="stroke:#04c4d0;stroke-opacity:1;stroke-width:2;stroke-dasharray:none" />
		</g>
		<g
   id="g4"
   style="stroke:#04c4d0;stroke-opacity:1;stroke-width:2;stroke-dasharray:none">
			<path
   fill="none"
   stroke="#BE0411"
   stroke-miterlimit="10"
   d="M10.574-1.824c0,0-2.877-0.25-4.97-2.208     C3.512-5.99,1.724-7.407-0.5-7.157"
   id="path3"
   style="stroke:#04c4d0;stroke-opacity:1;stroke-width:2;stroke-dasharray:none" />
			<path
   fill="none"
   stroke="#BE0411"
   stroke-miterlimit="10"
   d="M0.5-7.157c-2.224-0.25-4.012,1.167-6.104,3.125     s-4.969,2.208-4.969,2.208s-0.796,0.047-1.354,0"
   id="path4"
   style="stroke:#04c4d0;stroke-opacity:1;stroke-width:2;stroke-dasharray:none" />
		</g>
		<g
   id="g6"
   style="stroke:#04c4d0;stroke-opacity:1;stroke-width:2;stroke-dasharray:none">
			<path
   fill="none"
   stroke="#BE0411"
   stroke-miterlimit="10"
   d="M32.923-1.845c0,0-2.877-0.249-4.97-2.208     c-2.092-1.959-3.881-3.375-6.104-3.125"
   id="path5"
   style="stroke:#04c4d0;stroke-opacity:1;stroke-width:2;stroke-dasharray:none" />
			<path
   fill="none"
   stroke="#BE0411"
   stroke-miterlimit="10"
   d="M22.85-7.178c-2.225-0.25-4.012,1.166-6.104,3.125     c-2.092,1.959-4.969,2.208-4.969,2.208s-0.796,0.047-1.353,0"
   id="path6"
   style="stroke:#04c4d0;stroke-opacity:1;stroke-width:2;stroke-dasharray:none" />
		</g>
	</g>
	<g
   id="g13"
   style="stroke:#04c4d0;stroke-opacity:1;stroke-width:2;stroke-dasharray:none">
		<g
   id="g8"
   style="stroke:#04c4d0;stroke-opacity:1;stroke-width:2;stroke-dasharray:none">
			<path
   fill="none"
   stroke="#BE0411"
   stroke-miterlimit="10"
   d="M-32.923,7.186c0,0,2.877-0.249,4.97-2.207     c2.092-1.959,3.881-3.375,6.104-3.125"
   id="path7"
   style="stroke:#04c4d0;stroke-opacity:1;stroke-width:2;stroke-dasharray:none" />
			<path
   fill="none"
   stroke="#BE0411"
   stroke-miterlimit="10"
   d="M-22.85,1.854c2.224-0.25,4.012,1.166,6.104,3.125     c2.092,1.958,4.969,2.207,4.969,2.207s0.796,0.047,1.353,0"
   id="path8"
   style="stroke:#04c4d0;stroke-opacity:1;stroke-width:2;stroke-dasharray:none" />
		</g>
		<g
   id="g10"
   style="stroke:#04c4d0;stroke-opacity:1;stroke-width:2;stroke-dasharray:none">
			<path
   fill="none"
   stroke="#BE0411"
   stroke-miterlimit="10"
   d="M10.837,7.186c0,0-2.877-0.249-4.97-2.207     C3.776,3.02,1.988,1.604-0.236,1.854"
   id="path9"
   style="stroke:#04c4d0;stroke-opacity:1;stroke-width:2;stroke-dasharray:none" />
			<path
   fill="none"
   stroke="#BE0411"
   stroke-miterlimit="10"
   d="M0.764,1.854C-1.459,1.604-3.248,3.02-5.34,4.979     c-2.092,1.958-4.969,2.207-4.969,2.207s-0.796,0.047-1.353,0"
   id="path10"
   style="stroke:#04c4d0;stroke-opacity:1;stroke-width:2;stroke-dasharray:none" />
		</g>
		<g
   id="g12"
   style="stroke:#04c4d0;stroke-opacity:1;stroke-width:2;stroke-dasharray:none">
			<path
   fill="none"
   stroke="#BE0411"
   stroke-miterlimit="10"
   d="M33.187,7.166c0,0-2.877-0.25-4.97-2.209     c-2.092-1.958-3.881-3.375-6.104-3.125"
   id="path11"
   style="stroke:#04c4d0;stroke-opacity:1;stroke-width:2;stroke-dasharray:none" />
			<path
   fill="none"
   stroke="#BE0411"
   stroke-miterlimit="10"
   d="M23.114,1.832c-2.225-0.25-4.012,1.167-6.104,3.125     c-2.092,1.959-4.969,2.209-4.969,2.209s-0.796,0.047-1.353,0"
   id="path12"
   style="stroke:#04c4d0;stroke-opacity:1;stroke-width:2;stroke-dasharray:none" />
		</g>
	</g>
</g>
</svg>
