<?xml version="1.0" encoding="UTF-8" standalone="no"?>
<!-- Generator: Adobe Illustrator 16.0.3, SVG Export Plug-In . SVG Version: 6.00 Build 0)  -->

<svg
   version="1.1"
   id="Capa_1"
   x="0px"
   y="0px"
   width="135px"
   height="115px"
   viewBox="0 0 135 115"
   enable-background="new 0 0 135 115"
   xml:space="preserve"
   sodipodi:docname="Virgo.svg"
   inkscape:version="1.3.2 (091e20e, 2023-11-25, custom)"
   xmlns:inkscape="http://www.inkscape.org/namespaces/inkscape"
   xmlns:sodipodi="http://sodipodi.sourceforge.net/DTD/sodipodi-0.dtd"
   xmlns="http://www.w3.org/2000/svg"
   xmlns:svg="http://www.w3.org/2000/svg"><defs
   id="defs8" /><sodipodi:namedview
   id="namedview8"
   pagecolor="#ffffff"
   bordercolor="#cccccc"
   borderopacity="1"
   inkscape:showpageshadow="0"
   inkscape:pageopacity="1"
   inkscape:pagecheckerboard="0"
   inkscape:deskcolor="#d1d1d1"
   inkscape:zoom="5"
   inkscape:cx="18.1"
   inkscape:cy="9.4"
   inkscape:window-width="1920"
   inkscape:window-height="996"
   inkscape:window-x="1911"
   inkscape:window-y="-9"
   inkscape:window-maximized="1"
   inkscape:current-layer="Capa_1" />
<path
   fill="#BE0411"
   d="M-11.943-12.212"
   id="path1"
   style="stroke:#921497;stroke-opacity:1;stroke-width:2;stroke-dasharray:none" />
<path
   fill="none"
   stroke="#BE0411"
   stroke-miterlimit="10"
   d="M0-11.938c0-3.596-2.915-6.51-6.511-6.51  c-3.595,0-6.51,2.914-6.51,6.51v24.455"
   id="path2"
   style="stroke:#921497;stroke-opacity:1;stroke-width:2;stroke-dasharray:none" />
<path
   fill="#BE0411"
   d="M11.943-12.212"
   id="path3"
   style="stroke:#921497;stroke-opacity:1;stroke-width:2;stroke-dasharray:none" />
<path
   fill="none"
   stroke="#BE0411"
   stroke-miterlimit="10"
   d="M13.021,12.517v-24.455c0-3.596-2.915-6.51-6.51-6.51  C2.915-18.448,0-15.534,0-11.938v24.455"
   id="path4"
   style="stroke:#921497;stroke-opacity:1;stroke-width:2;stroke-dasharray:none" />
<path
   fill="none"
   stroke="#BE0411"
   stroke-miterlimit="10"
   d="M-13.021-12.516c0-3.596-2.915-6.511-6.51-6.511"
   id="path5"
   style="stroke:#921497;stroke-opacity:1;stroke-width:2;stroke-dasharray:none" />
<path
   fill="none"
   stroke="#BE0411"
   stroke-miterlimit="10"
   d="M13.021,12.517c0,3.596,2.915,6.51,6.51,6.51"
   id="path6"
   style="stroke:#921497;stroke-opacity:1;stroke-width:2;stroke-dasharray:none" />
<path
   fill="none"
   stroke="#BE0411"
   stroke-miterlimit="10"
   d="M5.702,19.026c0,0,13.438-1.248,13.563-18.947c0-0.083,0-0.166,0-0.25  "
   id="path7"
   style="stroke:#921497;stroke-opacity:1;stroke-width:2;stroke-dasharray:none" />
<path
   fill="none"
   stroke="#BE0411"
   stroke-miterlimit="10"
   d="M19.061,0.251c0,0-4.439,2.696-5.987,8.556"
   id="path8"
   style="stroke:#921497;stroke-opacity:1;stroke-width:2;stroke-dasharray:none" />
</svg>
